<svg width="93" height="95" viewBox="0 0 93 95" fill="none" xmlns="http://www.w3.org/2000/svg">
<path d="M71.6827 40.8636C67.6338 40.8645 63.6688 42.0014 60.2517 44.1411C56.8346 46.2808 54.1066 49.335 52.3871 52.9462C50.6676 56.5575 50.0275 60.5765 50.5418 64.533C51.0561 68.4895 52.7035 72.2199 55.2912 75.2878L41.9175 88.4208C41.2785 89.0438 40.9029 89.8823 40.8665 90.7672C40.8302 91.6522 41.1357 92.5178 41.7215 93.1896C42.3074 93.8615 43.1299 94.2896 44.0234 94.3876C44.9169 94.4856 45.815 94.2463 46.5365 93.7179L46.9392 93.3772L60.6919 79.8615C63.5078 81.5303 66.6771 82.5353 69.9524 82.7978C73.2277 83.0604 76.5203 82.5735 79.573 81.3752C82.6257 80.1768 85.3558 78.2995 87.5502 75.8897C89.7446 73.48 91.3438 70.6031 92.223 67.4838C93.1021 64.3645 93.2373 61.0872 92.6181 57.9079C91.9989 54.7286 90.642 51.7333 88.6534 49.1561C86.6647 46.5788 84.0983 44.4894 81.1544 43.0509C78.2105 41.6124 74.9689 40.8638 71.6827 40.8636ZM71.6827 47.8642C75.4521 47.8642 79.067 49.3393 81.7323 51.965C84.3977 54.5908 85.895 58.152 85.895 61.8653C85.895 65.5787 84.3977 69.1399 81.7323 71.7656C79.067 74.3914 75.4521 75.8665 71.6827 75.8665C67.9134 75.8665 64.2985 74.3914 61.6331 71.7656C58.9678 69.1399 57.4705 65.5787 57.4705 61.8653C57.4705 58.152 58.9678 54.5908 61.6331 51.965C64.2985 49.3393 67.9134 47.8642 71.6827 47.8642Z" fill="#24292D"/>
<path fill-rule="evenodd" clip-rule="evenodd" d="M23.9168 94.4091C25.0518 94.4091 25.9126 94.3713 26.4801 94.2958C27.1458 94.1613 27.7461 93.8051 28.1826 93.2857C28.7501 92.6909 29.0339 91.8318 29.0339 90.699L28.996 85.4406C28.9677 82.0893 28.9582 79.427 28.9582 77.4728L27.18 77.7844C25.757 78.008 24.3161 78.0965 22.8764 78.0487C21.0675 78.0168 19.2644 77.8368 17.485 77.5106C15.5967 77.1592 13.8197 76.363 12.3017 75.1882C10.7105 73.9867 9.52291 72.3306 8.89668 70.4397L8.12108 68.6554C7.46871 67.2503 6.64939 65.9286 5.68078 64.7187C4.81114 63.4782 3.65228 62.4673 2.30409 61.7733L1.76496 61.3957C1.39369 61.1227 1.05702 60.8057 0.762354 60.4516C0.476376 60.1299 0.240435 59.7671 0.0624248 59.3754C-0.0889115 59.0167 0.0340489 58.7146 0.440765 58.488C1.15461 58.2017 1.92464 58.0822 2.69189 58.1387L4.24309 58.3747C5.28353 58.573 6.56042 59.196 8.08324 60.2251C9.59661 61.2635 10.8546 62.5946 11.8383 64.2467C13.0301 66.3614 14.4583 67.9757 16.1419 69.0802C17.628 70.1263 19.3936 70.7049 21.2117 70.7418C22.9142 70.7418 24.3897 70.619 25.6288 70.3642C26.8349 70.1145 28.0066 69.7215 29.119 69.1935C29.5825 65.7477 30.8404 63.0855 32.9024 61.2352C30.2255 60.9709 27.5726 60.5038 24.9667 59.838C22.4223 59.1381 19.9756 58.1232 17.6836 56.817C15.2834 55.5173 13.1623 53.7596 11.441 51.6436C9.79524 49.5762 8.44267 46.8762 7.37386 43.5248C6.25946 39.76 5.72681 35.8476 5.79429 31.9224C5.79429 25.6917 7.83733 20.3767 11.914 15.9963C10.0033 11.3044 10.183 6.04605 12.4531 0.221262C13.957 -0.250762 16.1797 0.0985325 19.1213 1.25971C22.0629 2.42089 24.2289 3.41215 25.591 4.24291C26.9625 5.06423 28.0502 5.75339 28.8825 6.31982C33.727 4.97698 38.733 4.30358 43.7608 4.31844C48.8684 4.31844 53.8341 4.97927 58.639 6.32926L61.5712 4.46948C63.5953 3.24222 65.9694 2.09992 68.7029 1.0709C71.4459 0.0324494 73.5362 -0.250762 74.9834 0.221262C77.3102 6.04605 77.5182 11.3044 75.5982 15.9869C79.6842 20.3767 81.7273 25.6823 81.7273 31.9224C81.7273 34.2356 81.5796 36.4092 81.2842 38.4434C78.3716 37.2775 75.1925 36.6362 71.8636 36.6362C57.8557 36.6362 46.5 47.9919 46.5 61.9999C46.5 66.4582 47.6503 70.6479 49.6703 74.2883L36.2982 87.6604C34.4672 89.4913 34.197 92.292 35.4876 94.4091H23.9263H23.9168Z" fill="#24292D"/>
</svg>
