<svg width="197" height="88" viewBox="0 0 197 88" fill="none" xmlns="http://www.w3.org/2000/svg">
<path d="M116.838 36.8789L116.463 37.3477C115.385 38.6055 113.806 39.2344 111.728 39.2344C109.885 39.2344 108.435 38.625 107.381 37.4062C106.334 36.1797 105.799 34.4492 105.775 32.2148V28.8633C105.775 26.4727 106.252 24.6836 107.205 23.4961C108.166 22.3008 109.599 21.7031 111.506 21.7031C113.131 21.7031 114.4 22.1562 115.314 23.0625C116.236 23.9688 116.744 25.2617 116.838 26.9414H114.693C114.607 25.8789 114.31 25.0508 113.802 24.457C113.302 23.8555 112.541 23.5547 111.517 23.5547C110.291 23.5547 109.392 23.957 108.822 24.7617C108.252 25.5586 107.955 26.8359 107.931 28.5938V32.0742C107.931 33.793 108.26 35.1133 108.916 36.0352C109.572 36.9492 110.513 37.4062 111.74 37.4062C112.896 37.4062 113.775 37.125 114.377 36.5625L114.693 36.2695V32.332H111.576V30.5039H116.838V36.8789Z" fill="white"/>
<path d="M123.287 39H121.213V26.3203H123.287V39ZM123.451 22.957C123.451 23.3086 123.353 23.6016 123.158 23.8359C122.963 24.0703 122.666 24.1875 122.267 24.1875C121.877 24.1875 121.584 24.0703 121.388 23.8359C121.193 23.6016 121.095 23.3086 121.095 22.957C121.095 22.6055 121.193 22.3086 121.388 22.0664C121.584 21.8242 121.877 21.7031 122.267 21.7031C122.658 21.7031 122.951 21.8281 123.146 22.0781C123.349 22.3203 123.451 22.6133 123.451 22.957Z" fill="white"/>
<path d="M130.275 23.25V26.3203H132.185V27.9961H130.275V35.8594C130.275 36.3594 130.357 36.7383 130.521 36.9961C130.685 37.2539 130.967 37.3828 131.365 37.3828C131.638 37.3828 131.916 37.3359 132.197 37.2422L132.174 39C131.705 39.1562 131.224 39.2344 130.732 39.2344C129.912 39.2344 129.287 38.9414 128.857 38.3555C128.427 37.7695 128.213 36.9414 128.213 35.8711V27.9961H126.279V26.3203H128.213V23.25H130.275Z" fill="white"/>
<path d="M147.119 39H144.963V31.1133H138.095V39H135.951V21.9375H138.095V29.2734H144.963V21.9375H147.119V39Z" fill="white"/>
<path d="M158.01 37.8867C157.322 38.7852 156.318 39.2344 154.998 39.2344C153.849 39.2344 152.982 38.8398 152.396 38.0508C151.81 37.2539 151.513 36.0977 151.506 34.582V26.3203H153.568V34.4297C153.568 36.4062 154.162 37.3945 155.349 37.3945C156.607 37.3945 157.474 36.832 157.951 35.707V26.3203H160.025V39H158.056L158.01 37.8867Z" fill="white"/>
<path d="M173.33 33.2695C173.33 35.2461 172.974 36.7344 172.263 37.7344C171.552 38.7344 170.521 39.2344 169.17 39.2344C167.826 39.2344 166.818 38.6562 166.146 37.5L166.041 39H164.154V21H166.217V27.7148C166.896 26.6289 167.873 26.0859 169.146 26.0859C170.537 26.0859 171.58 26.5781 172.275 27.5625C172.97 28.5469 173.322 30.0312 173.33 32.0156V33.2695ZM171.267 32.0859C171.267 30.5859 171.056 29.5195 170.635 28.8867C170.22 28.2461 169.545 27.9258 168.607 27.9258C167.537 27.9258 166.74 28.5039 166.217 29.6602V35.6953C166.732 36.8359 167.537 37.4062 168.631 37.4062C169.568 37.4062 170.24 37.0781 170.646 36.4219C171.052 35.7656 171.26 34.7461 171.267 33.3633V32.0859Z" fill="white"/>
<path d="M114.072 57.4648H108.306V65H106.162V47.9375H115.045V49.7891H108.306V55.625H114.072V57.4648Z" fill="white"/>
<path d="M120.638 65H118.564V52.3203H120.638V65ZM120.802 48.957C120.802 49.3086 120.705 49.6016 120.51 49.8359C120.314 50.0703 120.017 50.1875 119.619 50.1875C119.228 50.1875 118.935 50.0703 118.74 49.8359C118.545 49.6016 118.447 49.3086 118.447 48.957C118.447 48.6055 118.545 48.3086 118.74 48.0664C118.935 47.8242 119.228 47.7031 119.619 47.7031C120.01 47.7031 120.302 47.8281 120.498 48.0781C120.701 48.3203 120.802 48.6133 120.802 48.957Z" fill="white"/>
<path d="M126.865 52.3203L126.924 53.6914C127.728 52.6211 128.756 52.0859 130.006 52.0859C132.248 52.0859 133.385 53.582 133.416 56.5742V65H131.353V56.668C131.353 55.6758 131.185 54.9727 130.849 54.5586C130.521 54.1367 130.025 53.9258 129.361 53.9258C128.845 53.9258 128.381 54.0977 127.967 54.4414C127.56 54.7852 127.232 55.2344 126.982 55.7891V65H124.908V52.3203H126.865Z" fill="white"/>
<path d="M137.099 58.0859C137.099 56.1328 137.463 54.6445 138.189 53.6211C138.924 52.5977 139.974 52.0859 141.342 52.0859C142.552 52.0859 143.498 52.5781 144.177 53.5625V47H146.252V65H144.353L144.248 63.6406C143.568 64.7031 142.595 65.2344 141.33 65.2344C140.017 65.2344 138.986 64.7266 138.236 63.7109C137.494 62.6875 137.115 61.2461 137.099 59.3867V58.0859ZM139.174 59.2695C139.174 60.6914 139.385 61.7383 139.806 62.4102C140.228 63.0742 140.916 63.4062 141.869 63.4062C142.9 63.4062 143.67 62.8867 144.177 61.8477V55.4492C143.646 54.4336 142.881 53.9258 141.881 53.9258C140.927 53.9258 140.24 54.2617 139.818 54.9336C139.396 55.5977 139.181 56.6211 139.174 58.0039V59.2695Z" fill="white"/>
<path d="M154.974 65.2344C153.396 65.2344 152.185 64.7656 151.342 63.8281C150.498 62.8828 150.068 61.5 150.052 59.6797V58.1445C150.052 56.2539 150.463 54.7734 151.283 53.7031C152.111 52.625 153.263 52.0859 154.74 52.0859C156.224 52.0859 157.334 52.5586 158.068 53.5039C158.802 54.4492 159.177 55.9219 159.193 57.9219V59.2812H152.115V59.5742C152.115 60.9336 152.369 61.9219 152.877 62.5391C153.392 63.1562 154.131 63.4648 155.092 63.4648C155.701 63.4648 156.236 63.3516 156.697 63.125C157.166 62.8906 157.603 62.5234 158.01 62.0234L159.088 63.3359C158.189 64.6016 156.818 65.2344 154.974 65.2344ZM154.74 53.8672C153.881 53.8672 153.244 54.1641 152.83 54.7578C152.416 55.3438 152.181 56.2578 152.127 57.5H157.119V57.2188C157.064 56.0156 156.845 55.1562 156.463 54.6406C156.088 54.125 155.513 53.8672 154.74 53.8672Z" fill="white"/>
<path d="M167.927 54.2656C167.638 54.2109 167.326 54.1836 166.99 54.1836C165.927 54.1836 165.185 54.7656 164.763 55.9297V65H162.689V52.3203H164.705L164.74 53.6094C165.295 52.5938 166.08 52.0859 167.095 52.0859C167.424 52.0859 167.697 52.1406 167.916 52.25L167.927 54.2656Z" fill="white"/>
<circle cx="56.8875" cy="43.8875" r="31.8875" fill="white"/>
<path d="M71.0076 46.5615C68.7815 46.562 66.6016 47.187 64.7229 48.3634C62.8443 49.5398 61.3445 51.2189 60.3991 53.2043C59.4537 55.1898 59.1018 57.3993 59.3846 59.5746C59.6673 61.7498 60.5731 63.8007 61.9958 65.4874L54.6431 72.7078C54.2917 73.0503 54.0853 73.5112 54.0653 73.9978C54.0453 74.4843 54.2133 74.9602 54.5353 75.3296C54.8574 75.6989 55.3097 75.9343 55.8009 75.9882C56.2921 76.0421 56.7858 75.9105 57.1825 75.62L57.4039 75.4327L64.965 68.0019C66.5131 68.9194 68.2555 69.472 70.0563 69.6163C71.857 69.7607 73.6672 69.493 75.3455 68.8342C77.0238 68.1753 78.5248 67.1432 79.7313 65.8183C80.9377 64.4935 81.8169 62.9118 82.3003 61.1969C82.7836 59.4819 82.858 57.6801 82.5175 55.9322C82.1771 54.1843 81.4311 52.5375 80.3378 51.1206C79.2444 49.7036 77.8334 48.5549 76.2149 47.764C74.5964 46.9732 72.8142 46.5616 71.0076 46.5615ZM71.0076 50.4103C73.0799 50.4103 75.0673 51.2213 76.5327 52.6649C77.998 54.1085 78.8213 56.0664 78.8213 58.1079C78.8213 60.1495 77.998 62.1074 76.5327 63.551C75.0673 64.9946 73.0799 65.8056 71.0076 65.8056C68.9352 65.8056 66.9478 64.9946 65.4824 63.551C64.0171 62.1074 63.1939 60.1495 63.1939 58.1079C63.1939 56.0664 64.0171 54.1085 65.4824 52.6649C66.9478 51.2213 68.9352 50.4103 71.0076 50.4103Z" fill="#2B3137"/>
<path fill-rule="evenodd" clip-rule="evenodd" d="M44.7466 76C45.3706 76 45.8438 75.9792 46.1558 75.9377C46.5219 75.8638 46.8519 75.668 47.0918 75.3824C47.4039 75.0554 47.5599 74.5831 47.5599 73.9602L47.5391 71.0693C47.5235 69.2267 47.5183 67.7631 47.5183 66.6887L46.5406 66.86C45.7583 66.9829 44.9661 67.0316 44.1746 67.0053C43.1801 66.9877 42.1887 66.8888 41.2105 66.7095C40.1723 66.5163 39.1954 66.0785 38.3608 65.4327C37.4859 64.7721 36.833 63.8616 36.4887 62.822L36.0623 61.841C35.7037 61.0685 35.2532 60.3418 34.7207 59.6767C34.2426 58.9946 33.6054 58.4389 32.8642 58.0573L32.5678 57.8497C32.3637 57.6996 32.1786 57.5253 32.0166 57.3307C31.8594 57.1538 31.7297 56.9543 31.6318 56.739C31.5486 56.5418 31.6162 56.3757 31.8398 56.2511C32.2323 56.0937 32.6556 56.028 33.0774 56.0591L33.9303 56.1888C34.5023 56.2978 35.2043 56.6404 36.0415 57.2061C36.8735 57.777 37.5652 58.5089 38.106 59.4172C38.7612 60.5798 39.5464 61.4673 40.4721 62.0746C41.2891 62.6497 42.2598 62.9678 43.2593 62.9881C44.1954 62.9881 45.0066 62.9206 45.6878 62.7804C46.3509 62.6432 46.9951 62.4271 47.6067 62.1369C47.8615 60.2424 48.5531 58.7788 49.6867 57.7615C48.215 57.6162 46.7565 57.3594 45.3238 56.9933C43.9249 56.6085 42.5798 56.0505 41.3197 55.3324C40 54.6179 38.8339 53.6515 37.8876 52.4882C36.9828 51.3515 36.2391 49.8671 35.6515 48.0246C35.0388 45.9547 34.746 43.8037 34.7831 41.6458C34.7831 38.2202 35.9063 35.2981 38.1476 32.8898C37.0972 30.3103 37.196 27.4193 38.444 24.2169C39.2708 23.9574 40.4929 24.1494 42.1101 24.7878C43.7274 25.4262 44.9182 25.9712 45.667 26.428C46.421 26.8795 47.019 27.2584 47.4767 27.5698C50.1401 26.8315 52.8923 26.4613 55.6565 26.4695C58.4646 26.4695 61.1947 26.8328 63.8363 27.575L65.4484 26.5525C66.5612 25.8778 67.8665 25.2498 69.3693 24.684C70.8773 24.1131 72.0266 23.9574 72.8222 24.2169C74.1014 27.4193 74.2158 30.3103 73.1602 32.8846C75.4067 35.2981 76.5299 38.215 76.5299 41.6458C76.5299 42.9175 76.4487 44.1125 76.2863 45.2309C74.685 44.5899 72.9371 44.2373 71.1069 44.2373C63.4056 44.2373 57.1624 50.4805 57.1624 58.1818C57.1624 60.633 57.7948 62.9364 58.9054 64.9378L52.4283 71.4149C51.1887 72.6544 50.8726 74.4678 51.4799 76H44.7518H44.7466Z" fill="#2B3137"/>
</svg>
